<?xml version="1.0" encoding="utf-8"?>
<!-- Generator: Adobe Illustrator 26.0.0, SVG Export Plug-In . SVG Version: 6.00 Build 0)  -->
<svg version="1.1" id="Capa_1" focusable="false" xmlns="http://www.w3.org/2000/svg" xmlns:xlink="http://www.w3.org/1999/xlink"
	 x="0px" y="0px" viewBox="0 0 384 512" style="enable-background:new 0 0 384 512;" xml:space="preserve">
<style type="text/css">
	.st0{fill:#FFFFFF;stroke:#2C5697;stroke-width:20;stroke-miterlimit:10;}
</style>
<path class="st0" d="M102.6,356.5c-8.2-8.2-3.9-5.9-23.7-11.2c-9-2.4-16.8-7-24-12.6L12.1,437.7c-4.1,10.2,3.6,21.2,14.5,20.8
	l49.7-1.9l34.2,36.1c7.5,8,20.8,5.5,24.9-4.7l49.1-120.3c-10.2,5.7-21.6,9-33.3,9C132.8,376.7,115.6,369.5,102.6,356.5z
	 M371.9,437.7l-42.8-104.9c-7.1,5.5-15,10.2-24,12.6c-19.9,5.3-15.5,3-23.7,11.2c-13,13-30.3,20.1-48.7,20.1
	c-11.7,0-23.1-3.3-33.3-9l49.1,120.3c4.1,10.2,17.4,12.6,24.9,4.7l34.2-36.1l49.7,1.9C368.3,458.8,376,447.8,371.9,437.7z
	 M258.9,335.2c14.4-14.7,16.1-13.4,36.6-19c13.1-3.6,23.3-14,26.8-27.3c7.1-26.8,5.2-23.5,24.5-43.1c9.6-9.8,13.3-24,9.8-37.3
	c-7-26.8-7.1-23,0-49.8c3.5-13.3-0.2-27.6-9.8-37.3c-19.2-19.6-17.4-16.4-24.5-43.1c-3.5-13.3-13.7-23.7-26.8-27.3
	c-26.3-7.2-23.1-5.3-42.4-24.9c-9.6-9.8-23.6-13.6-36.7-10c-26.3,7.2-22.6,7.2-48.9,0c-13.1-3.6-27.1,0.2-36.7,10
	c-19.2,19.6-16.1,17.7-42.4,24.9c-13.1,3.6-23.3,14-26.8,27.3c-7,26.8-5.2,23.5-24.5,43.1c-9.6,9.8-13.3,24-9.8,37.3
	c7,26.7,7.1,23,0,49.8c-3.5,13.3,0.2,27.6,9.8,37.3c19.2,19.6,17.4,16.4,24.5,43.1c3.5,13.3,13.7,23.7,26.8,27.3
	c21.1,5.8,22.7,4.8,36.6,19c12.5,12.7,31.9,15,46.9,5.5c12.2-7.8,27.9-7.8,40.1,0C227,350.2,246.5,347.9,258.9,335.2z M103.1,180.5
	c0-50,39.8-90.5,88.9-90.5s88.9,40.5,88.9,90.5s-39.8,90.5-88.9,90.5S103.1,230.5,103.1,180.5L103.1,180.5z"/>
</svg>
