<?xml version="1.0" encoding="utf-8"?>
<!-- Generator: Adobe Illustrator 26.0.0, SVG Export Plug-In . SVG Version: 6.00 Build 0)  -->
<svg version="1.1" id="Capa_1" focusable="false" xmlns="http://www.w3.org/2000/svg" xmlns:xlink="http://www.w3.org/1999/xlink"
	 x="0px" y="0px" viewBox="0 0 448 512" style="enable-background:new 0 0 448 512;" xml:space="preserve">
<style type="text/css">
	.st0{fill:none;stroke:#FCFAFA;stroke-width:20;stroke-miterlimit:10;}
</style>
<path class="st0" d="M151.9,286.4H114c-6.3,0-11.4-5.1-11.4-11.4v-38c0-6.3,5.1-11.4,11.4-11.4h37.9c6.3,0,11.4,5.1,11.4,11.4v38
	C163.3,281.3,158.2,286.4,151.9,286.4z M254.4,275v-38c0-6.3-5.1-11.4-11.4-11.4H205c-6.3,0-11.4,5.1-11.4,11.4v38
	c0,6.3,5.1,11.4,11.4,11.4H243C249.2,286.4,254.4,281.3,254.4,275z M345.4,275v-38c0-6.3-5.1-11.4-11.4-11.4h-37.9
	c-6.3,0-11.4,5.1-11.4,11.4v38c0,6.3,5.1,11.4,11.4,11.4H334C340.3,286.4,345.4,281.3,345.4,275z M254.4,366.3v-38
	c0-6.3-5.1-11.4-11.4-11.4H205c-6.3,0-11.4,5.1-11.4,11.4v38c0,6.3,5.1,11.4,11.4,11.4H243C249.2,377.7,254.4,372.6,254.4,366.3z
	 M163.3,366.3v-38c0-6.3-5.1-11.4-11.4-11.4H114c-6.3,0-11.4,5.1-11.4,11.4v38c0,6.3,5.1,11.4,11.4,11.4h37.9
	C158.2,377.7,163.3,372.6,163.3,366.3z M345.4,366.3v-38c0-6.3-5.1-11.4-11.4-11.4h-37.9c-6.3,0-11.4,5.1-11.4,11.4v38
	c0,6.3,5.1,11.4,11.4,11.4H334C340.3,377.7,345.4,372.6,345.4,366.3z M436.5,119.1v334.7c0,25.2-20.4,45.6-45.5,45.6H57
	c-25.1,0-45.5-20.4-45.5-45.6V119.1c0-25.2,20.4-45.6,45.5-45.6h45.5V24c0-6.3,5.1-11.4,11.4-11.4h37.9c6.3,0,11.4,5.1,11.4,11.4
	v49.4h121.4V24c0-6.3,5.1-11.4,11.4-11.4H334c6.3,0,11.4,5.1,11.4,11.4v49.4H391C416.1,73.4,436.5,93.9,436.5,119.1z M391,448.1
	V164.7H57v283.4c0,3.1,2.6,5.7,5.7,5.7h322.5C388.4,453.8,391,451.2,391,448.1z"/>
</svg>
