<?xml version="1.0" encoding="utf-8"?>
<!-- Generator: Adobe Illustrator 26.0.0, SVG Export Plug-In . SVG Version: 6.00 Build 0)  -->
<svg version="1.1" id="Capa_1" focusable="false" xmlns="http://www.w3.org/2000/svg" xmlns:xlink="http://www.w3.org/1999/xlink"
	 x="0px" y="0px" viewBox="0 0 448 512" style="enable-background:new 0 0 448 512;" xml:space="preserve">
<style type="text/css">
	.st0{fill:#FFFFFF;stroke:#2C5697;stroke-width:20;stroke-miterlimit:10;}
</style>
<path class="st0" d="M346.4,175.5c-17.8-22.6-48-29.1-72.8-17.4c-13.8-14.3-33-20.5-51.6-17.9V73.1c0-33.7-27.1-61.1-60.4-61.1
	S101,39.4,101,73.1V220c-18.2-6.8-39.5-4.6-56.6,8.1c-26.8,19.9-32.6,57.7-13.3,84.9l100,140.4c11.3,15.9,29.7,25.4,49,25.4h162.6
	c28.1,0,52.5-19.6,58.9-47.2l25-108.5c1-4.5,1.6-9.2,1.6-13.9v-76.6C428.3,189.9,385.7,160.3,346.4,175.5z M93.6,267l24.7,34.7
	c8.2,11.5,26.5,5.7,26.5-8.5V73.1c0-22.9,33.3-22.9,33.3,0v159.6c0,8.1,6.5,14.6,14.6,14.6h6.3c8.1,0,14.6-6.5,14.6-14.6v-31.9
	c0-22.9,33.3-22.9,33.3,0v31.9c0,8.1,6.5,14.6,14.6,14.6h6.3c8.1,0,14.6-6.5,14.6-14.6v-19.1c0-22.9,33.3-22.9,33.3,0v19.1
	c0,8.1,6.5,14.6,14.6,14.6h6.3c8.1,0,14.6-6.5,14.6-14.6c0-22.9,33.3-22.9,33.3,0v76.6c0,1.4-0.2,2.7-0.5,4l-25,108.5
	c-1.8,7.8-8.5,13.3-16.2,13.3H180.2c-5.3,0-10.3-2.6-13.4-7l-100-140.4C53.7,269.2,80.5,248.6,93.6,267L93.6,267z M180.4,376.7
	v-87.5c0-8.1,5.7-14.6,12.8-14.6h5.5c7.1,0,12.8,6.5,12.8,14.6v87.5c0,8.1-5.7,14.6-12.8,14.6h-5.5
	C186.1,391.3,180.4,384.8,180.4,376.7z M249.1,376.7v-87.5c0-8.1,5.7-14.6,12.8-14.6h5.5c7.1,0,12.8,6.5,12.8,14.6v87.5
	c0,8.1-5.7,14.6-12.8,14.6h-5.5C254.9,391.3,249.1,384.8,249.1,376.7z M317.9,376.7v-87.5c0-8.1,5.7-14.6,12.8-14.6h5.5
	c7.1,0,12.8,6.5,12.8,14.6v87.5c0,8.1-5.7,14.6-12.8,14.6h-5.5C323.6,391.3,317.9,384.8,317.9,376.7z"/>
</svg>
