<?xml version="1.0" encoding="utf-8"?>
<!-- Generator: Adobe Illustrator 26.0.0, SVG Export Plug-In . SVG Version: 6.00 Build 0)  -->
<svg version="1.1" id="Capa_1" focusable="false" xmlns="http://www.w3.org/2000/svg" xmlns:xlink="http://www.w3.org/1999/xlink"
	 x="0px" y="0px" viewBox="0 0 448 512" style="enable-background:new 0 0 448 512;" xml:space="preserve">
<style type="text/css">
	.st0{fill:#2C5697;}
</style>
<path class="st0" d="M100.3,469H7.4V169.9h92.9V469z M53.8,129.1C24.1,129.1,0,104.5,0,74.8C0,45.1,24.1,21,53.8,21
	c29.7,0,53.8,24.1,53.8,53.8C107.6,104.5,83.5,129.1,53.8,129.1z M447.9,469h-92.7V323.4c0-34.7-0.7-79.2-48.3-79.2
	c-48.3,0-55.7,37.7-55.7,76.7V469h-92.8V169.9h89.1v40.8h1.3c12.4-23.5,42.7-48.3,87.9-48.3c94,0,111.3,61.9,111.3,142.3V469H447.9z
	"/>
</svg>
