<?xml version="1.0" encoding="utf-8"?>
<!-- Generator: Adobe Illustrator 26.0.0, SVG Export Plug-In . SVG Version: 6.00 Build 0)  -->
<svg version="1.1" id="Capa_1" focusable="false" xmlns="http://www.w3.org/2000/svg" xmlns:xlink="http://www.w3.org/1999/xlink"
	 x="0px" y="0px" viewBox="0 0 512 512" style="enable-background:new 0 0 512 512;" xml:space="preserve">
<style type="text/css">
	.st0{fill:#FFFFFF;stroke:#2C5697;stroke-width:20;stroke-miterlimit:10;}
</style>
<path class="st0" d="M483.5,148L442,189.5c-4.3,4.3-11.2,4.3-15.4,0L326.5,89.4c-4.3-4.3-4.3-11.2,0-15.4L368,32.5
	c16.9-16.9,44.3-16.9,61.3,0l54.2,54.2C500.5,103.6,500.5,131,483.5,148z M290.7,109.8L53.8,346.7c0,0,0,0,0,0L34.7,456.3
	c-2.6,14.8,10.3,27.6,25.1,25.1l109.6-19.2c0,0,0,0,0,0l236.9-236.9c4.3-4.3,4.3-11.2,0-15.4L306.1,109.8
	C301.8,105.6,295,105.6,290.7,109.8L290.7,109.8z M146.3,326.4c-5-5-5-12.9,0-17.9l138.6-138.6c5-5,13.1-5.3,18.1-0.4
	c5,5,5,12.9,0.1,17.9L164.1,326.4C159.2,331.4,151.2,331.4,146.3,326.4L146.3,326.4z M113.7,402.3h43.2c0,0,0.1,0,0.1,0.1V435
	c0,0,0,0.1,0,0.1l-58.1,10.2c0,0,0,0,0,0l-28-28c0,0,0,0,0,0L80.9,359c0,0,0,0,0.1,0h32.6c0,0,0.1,0,0.1,0.1L113.7,402.3
	C113.7,402.3,113.7,402.3,113.7,402.3z"/>
</svg>
