<?xml version="1.0" encoding="utf-8"?>
<!-- Generator: Adobe Illustrator 26.0.0, SVG Export Plug-In . SVG Version: 6.00 Build 0)  -->
<svg version="1.1" id="Capa_1" focusable="false" xmlns="http://www.w3.org/2000/svg" xmlns:xlink="http://www.w3.org/1999/xlink"
	 x="0px" y="0px" viewBox="0 0 576 512" style="enable-background:new 0 0 576 512;" xml:space="preserve">
<style type="text/css">
	.st0{fill:#FFFFFF;stroke:#2C5697;stroke-width:20;stroke-miterlimit:10;}
</style>
<path class="st0" d="M512.7,286.8c-39.2,0-56.2,29.8-77.5,29.8c-56.6,0-5.1-166.2-5.1-166.2s-185.4,75.5-185.4-3.1
	c0-33.8,34.3-43.6,34.3-81.1c0-33.5-26.5-51.6-58-51.6c-32.7,0-62.7,17.8-62.7,53.1c0,39,29.9,55.9,29.9,77.1
	c0,65.7-166.1,27-166.1,27v314.3c0,0,168.7,38.7,168.7-27c0-21.2-37.8-37.8-37.8-76.8c0-35.3,27.6-53.1,60-53.1
	c31.8,0,58.3,18.1,58.3,51.6c0,37.5-34.3,47.3-34.3,81.1c0,57.4,122.5,24.3,171.1,24.3c0,0-32.8-113.3,24.4-113.3
	c34,0,43.8,34.1,81.5,34.1c33.7,0,51.9-26.4,51.9-58.1C566.1,316.6,548.2,286.8,512.7,286.8z"/>
</svg>
