<?xml version="1.0" encoding="utf-8"?>
<!-- Generator: Adobe Illustrator 26.0.0, SVG Export Plug-In . SVG Version: 6.00 Build 0)  -->
<svg version="1.1" id="Capa_1" focusable="false" xmlns="http://www.w3.org/2000/svg" xmlns:xlink="http://www.w3.org/1999/xlink"
	 x="0px" y="0px" viewBox="0 0 448 512" style="enable-background:new 0 0 448 512;" xml:space="preserve">
<style type="text/css">
	.st0{fill:#FFFFFF;stroke:#2C5697;stroke-width:20;stroke-miterlimit:10;}
</style>
<path class="st0" d="M388.6,256H156.7v-96.4c0-37,29.6-67.8,66.7-68.2c37.4-0.4,68,30,68,67.3v15c0,12.4,10,22.4,22.4,22.4h29.9
	c12.4,0,22.4-10,22.4-22.4v-15c0-78.6-64.1-142.4-142.6-142.2C145,16.9,81.8,81.6,81.8,160.1V256H59.4c-24.8,0-44.9,20.1-44.9,44.9
	v149.6c0,24.8,20.1,44.9,44.9,44.9h329.2c24.8,0,44.9-20.1,44.9-44.9V300.9C433.5,276.1,413.4,256,388.6,256z M261.4,398.2
	c0,20.7-16.7,37.4-37.4,37.4s-37.4-16.7-37.4-37.4v-44.9c0-20.7,16.7-37.4,37.4-37.4s37.4,16.7,37.4,37.4V398.2z"/>
</svg>
